<?xml version="1.0" encoding="utf-8"?>
<!-- Generator: Adobe Illustrator 21.0.2, SVG Export Plug-In . SVG Version: 6.00 Build 0)  -->
<!DOCTYPE svg PUBLIC "-//W3C//DTD SVG 1.1//EN" "http://www.w3.org/Graphics/SVG/1.1/DTD/svg11.dtd">
<svg version="1.1" id="Ebene_1" xmlns="http://www.w3.org/2000/svg" xmlns:xlink="http://www.w3.org/1999/xlink" x="0px" y="0px"
	 viewBox="0 0 757.1 167.6" style="enable-background:new 0 0 757.1 167.6;" xml:space="preserve">
<style type="text/css">
	.st0{enable-background:new    ;}
	.st1{fill:#424241;}
	.st2{fill:#004F9F;}
</style>
<title>UKB-Logo</title>
<g class="st0">
	<path class="st1" d="M341.5,167.4l-16-20v20h-4v-54.7h4v34.6l15.3-17.2h4.8l-15.5,16.9l16.8,20.3H341.5z"/>
	<path class="st1" d="M356.4,167.4v-54.7h4v54.7H356.4z"/>
	<path class="st1" d="M377.4,120.9c-1.6,0-3-1.3-3-3c0-1.6,1.3-3,3-3c1.6,0,3,1.3,3,3C380.4,119.6,379.1,120.9,377.4,120.9z
		 M375.4,167.4v-37.3h4v37.3H375.4z"/>
	<path class="st1" d="M418.9,167.4v-24.2c0-6.6-1.8-10.4-8-10.4c-7.4,0-12.5,7-12.5,16.9v17.8h-4v-37.3h4.1c0,2.8-0.2,6.6-0.7,9
		l0.2,0.1c2.1-5.8,7-9.7,13.6-9.7c8.6,0,11.2,5.3,11.2,12v25.9H418.9z"/>
	<path class="st1" d="M439.9,120.9c-1.6,0-3-1.3-3-3c0-1.6,1.3-3,3-3s3,1.3,3,3C442.9,119.6,441.5,120.9,439.9,120.9z M437.8,167.4
		v-37.3h4v37.3H437.8z"/>
	<path class="st1" d="M476.8,167.4l-16-20v20h-4v-54.7h4v34.6l15.3-17.2h4.8l-15.5,16.9l16.8,20.3H476.8z"/>
	<path class="st1" d="M515,167.4c0-2.8,0.2-6.6,0.7-9l-0.2-0.1c-2.1,5.8-7,9.7-13.6,9.7c-8.6,0-11.2-5.3-11.2-12v-25.9h4v24.2
		c0,6.6,1.8,10.4,8,10.4c7.4,0,12.5-7,12.5-16.9v-17.8h4v37.3H515z"/>
	<path class="st1" d="M582,167.4v-24.2c0-6.3-1.5-10.4-7.6-10.4c-6.4,0-12.3,6.3-12.3,17v17.6h-4v-24.3c0-5.6-1.1-10.3-7.6-10.3
		c-6.9,0-12.3,7-12.3,17v17.6h-4v-37.3h4.1c0,2.8-0.2,6.6-0.7,9l0.2,0.1c2.1-5.8,7.1-9.7,13.5-9.7c9.2,0,10.6,7,10.4,9.5
		c1.3-3.5,5.2-9.5,13.3-9.5c6.9,0,10.9,3.6,10.9,12v25.9H582z"/>
</g>
<g class="st0">
	<path class="st1" d="M613.6,168c-5.2,0-8.8-0.4-12.8-1.5v-53.8h6.7v18.1c0,2.2-0.2,5.1-0.7,7l0.2,0.1c2-5.2,6.7-8.3,12.3-8.3
		c8.8,0,13.7,6.1,13.7,17.5C633,160.1,625.6,168,613.6,168z M617.7,135c-6.7,0-10.2,7.9-10.2,14.3v12.4c2,0.6,4,0.9,6.6,0.9
		c7,0,11.8-4.3,11.8-15C626,139.6,623.4,135,617.7,135z"/>
	<path class="st1" d="M656,168.1c-10.2,0-16.7-5.8-16.7-19c0-10.9,6.9-19.6,18.1-19.6c9.5,0,16.7,5.2,16.7,18.7
		C674.1,159.4,667,168.1,656,168.1z M656.8,135.1c-5.4,0-10.6,4.1-10.6,13.3c0,9,3.7,13.9,10.6,13.9c5.5,0,10.3-4.3,10.3-13.9
		C667.1,140.1,663.7,135.1,656.8,135.1z"/>
	<path class="st1" d="M707.2,167.4v-24c0-5.2-1.4-8.4-6.4-8.4c-6.1,0-10.6,6.3-10.6,14.5v17.8h-6.7v-37.3h6.5c0,2.2-0.2,5.6-0.6,7.9
		h0.2c2.2-5.1,6.7-8.5,13.1-8.5c8.5,0,11.2,5.3,11.2,11.9v26H707.2z"/>
	<path class="st1" d="M750.3,167.4v-24c0-5.2-1.4-8.4-6.4-8.4c-6.1,0-10.6,6.3-10.6,14.5v17.8h-6.7v-37.3h6.5c0,2.2-0.2,5.6-0.6,7.9
		h0.2c2.2-5.1,6.7-8.5,13.1-8.5c8.5,0,11.2,5.3,11.2,11.9v26H750.3z"/>
</g>
<g class="st0">
	<path class="st1" d="M345.9,91.5c0-2.8,0.2-6.6,0.7-9l-0.1-0.1c-2.1,5.8-7,9.7-13.6,9.7c-8.6,0-11.2-5.3-11.2-12V54.3h4v24.2
		c0,6.6,1.8,10.4,8,10.4c7.4,0,12.5-7,12.5-16.9V54.3h4v37.3H345.9z"/>
	<path class="st1" d="M389.6,91.5V67.3c0-6.6-1.8-10.4-8-10.4c-7.4,0-12.5,7-12.5,16.9v17.8h-4V54.3h4.1c0,2.8-0.2,6.6-0.7,9
		l0.1,0.1c2.1-5.8,7-9.7,13.6-9.7c8.6,0,11.2,5.3,11.2,12v25.9H389.6z"/>
	<path class="st1" d="M410.5,45.1c-1.6,0-3-1.3-3-3c0-1.6,1.3-3,3-3c1.7,0,3,1.3,3,3C413.5,43.7,412.2,45.1,410.5,45.1z M408.5,91.5
		V54.3h4v37.3H408.5z"/>
</g>
<g class="st0">
	<path class="st1" d="M439.4,91.5h-4.2L421,54.3h4.6l9.8,27.4c0.8,2.2,1.3,3.9,1.9,5.9h0.1c0.6-1.9,1.3-3.8,1.9-5.7l10.1-27.7h4.4
		L439.4,91.5z"/>
</g>
<g class="st0">
	<path class="st1" d="M487.5,71.5h-25.6c-0.5,12,4.3,17.2,13.2,17.2c3.7,0,7.4-0.8,10.5-2.2l0.9,3.4c-3.4,1.4-7.6,2.2-12.3,2.2
		c-10.8,0-16.6-6.1-16.6-19.1c0-11.1,5.9-19.3,15.9-19.3c10,0,14.1,7,14.1,14.8C487.5,68.9,487.5,70.2,487.5,71.5z M473.1,56.9
		c-5.8,0-10,4.1-11.1,11.4h21.1C483.3,61.3,479.5,56.9,473.1,56.9z"/>
	<path class="st1" d="M515.9,57.7c-8.8-1.3-12.9,5.7-12.9,19.1v14.8h-4V54.3h4.1c0,2.7-0.3,6.7-1,10.1l0.1,0.1
		c1.3-5.7,5.3-11.8,13.7-10.7L515.9,57.7z"/>
	<path class="st1" d="M531,92.1c-2.8,0-6.1-0.3-8.3-1l0.7-4c2.4,0.9,5.7,1.4,8.5,1.4c5.8,0,10.1-2.8,10.1-7.3
		c0-10.1-19.5-3.7-19.5-17.2c0-6.1,4.9-10.5,13.9-10.5c2.4,0,5.3,0.4,7.6,0.9l-0.6,3.5c-2.3-0.8-5-1.2-7.6-1.2
		c-6.1,0-9.1,2.6-9.1,6.7c0,10.2,19.5,3.9,19.5,17C546,86.9,540.5,92.1,531,92.1z"/>
	<path class="st1" d="M560,45.1c-1.6,0-3-1.3-3-3c0-1.6,1.3-3,3-3c1.7,0,3,1.3,3,3C563,43.7,561.7,45.1,560,45.1z M558,91.5V54.3h4
		v37.3H558z"/>
	<path class="st1" d="M587.5,92.1c-7.1,0-9.1-3.4-9.1-10.7V57.4h-8.8v-3.1h8.8V41.5l4-1.1v13.9h11.8v3.1h-11.8v21.7
		c0,7.5,1.3,9.4,6.1,9.4c2,0,3.8-0.3,5.3-0.7l0.6,3.5C592.4,91.8,589.7,92.1,587.5,92.1z"/>
</g>
<g class="st0">
	<path class="st1" d="M624.4,91.5c0-3.1,0.1-6.2,0.5-8.5l-0.2-0.1c-1.8,5-6.7,9.1-13.4,9.1c-5.6,0-10-3.5-10-9.5
		c0-7.2,7.8-12.6,23.2-12.6v-2.1c0-7.3-2.2-10.9-9.1-10.9c-3.6,0-8.1,1.3-11.2,2.8l-1-3.4c3.5-1.6,8.1-2.8,12.8-2.8
		c9.4,0,12.4,5.2,12.4,13v13c0,4,0.1,8.4,0.1,11.8H624.4z M624.4,73.3c-14.8,0-19,4.3-19,8.6c0,4,2.7,6.9,6.8,6.9
		c7.3,0,12.2-7.4,12.2-14.6V73.3z M608.9,45c-1.6,0-2.9-1.3-2.9-2.9c0-1.6,1.3-2.9,2.9-2.9s2.9,1.3,2.9,2.9
		C611.9,43.7,610.6,45,608.9,45z M622.6,45c-1.6,0-2.9-1.3-2.9-2.9c0-1.6,1.3-2.9,2.9-2.9c1.7,0,2.9,1.3,2.9,2.9
		C625.5,43.7,624.2,45,622.6,45z"/>
</g>
<g class="st0">
	<path class="st1" d="M652.9,92.1c-7.1,0-9.1-3.4-9.1-10.7V57.4h-8.8v-3.1h8.8V41.5l4-1.1v13.9h11.8v3.1h-11.8v21.7
		c0,7.5,1.3,9.4,6.1,9.4c1.9,0,3.8-0.3,5.3-0.7l0.6,3.5C657.9,91.8,655.2,92.1,652.9,92.1z"/>
	<path class="st1" d="M675.4,92.1c-2.8,0-6.1-0.3-8.3-1l0.7-4c2.4,0.9,5.7,1.4,8.5,1.4c5.8,0,10.1-2.8,10.1-7.3
		c0-10.1-19.5-3.7-19.5-17.2c0-6.1,4.9-10.5,13.9-10.5c2.4,0,5.3,0.4,7.6,0.9l-0.6,3.5c-2.3-0.8-5-1.2-7.6-1.2
		c-6.1,0-9.1,2.6-9.1,6.7c0,10.2,19.5,3.9,19.5,17C690.5,86.9,685,92.1,675.4,92.1z"/>
</g>
<g>
	<path class="st2" d="M74.6,106.1c0,29.9-15.5,51.3-38.1,51.3c-18.9,0-24.4-11.6-24.4-31.7V52H0v78.7c0,20.3,8,36.5,34.2,36.5
		c20.3,0,34-11.1,40.4-28.9v29.3h12.1V0H74.6V106.1z"/>
</g>
<g>
	<polygon class="st1" points="99.4,106.6 145.9,54.2 160.5,54.2 113.3,105.7 164.3,167.5 147.9,167.5 	"/>
</g>
<g>
	<path class="st1" d="M236.9,51.2c-18.5,0-32.4,11.3-39,30.5c0,0,0-14.5,0-20.7V-0.1h-12.1v163.7c11.2,2.7,21,3.9,35.8,3.9
		c34.2,0,57.2-21.4,57.2-62.7C278.8,69,263.3,51.2,236.9,51.2 M223,156.9c-9.6,0-17.6-0.9-25.1-3.4v-42.9
		c0-20.5,11.8-50.6,37.6-50.6c21,0,30.6,17.1,30.6,44.7C266.1,141.4,249.2,156.9,223,156.9"/>
</g>
<text transform="matrix(1 0 0 1 215 -165)" style="font-family:'MyriadPro-Regular'; font-size:12px;">Lorem ipsum</text>
</svg>
